<svg xmlns="http://www.w3.org/2000/svg" xmlns:xlink="http://www.w3.org/1999/xlink" viewBox="0 0 183.63 245.72"><defs><linearGradient id="linear-gradient" x1="3.91" y1="226.37" x2="132.23" y2="45.65" gradientUnits="userSpaceOnUse"><stop offset="0" stop-color="#00a28a"/><stop offset="1" stop-color="#3460c7"/></linearGradient><linearGradient id="linear-gradient-2" x1="-4.53" y1="220.37" x2="123.79" y2="39.66" xlink:href="#linear-gradient"/><linearGradient id="linear-gradient-3" x1="75.13" y1="276.94" x2="203.45" y2="96.22" xlink:href="#linear-gradient"/><linearGradient id="linear-gradient-4" x1="3.97" y1="226.41" x2="132.28" y2="45.69" xlink:href="#linear-gradient"/></defs><title>SVG logo</title><g id="Layer_2" data-name="Layer 2"><g id="Layer_1-2" data-name="Layer 1"><path d="M92.84,39c-13.41.47-24.88,3.6-35.22,10.3-7.69,5-12.78,12.17-16.15,20.6A20.93,20.93,0,0,1,30.36,81.58,21.46,21.46,0,0,1,10.8,43.44c5-3,10.55-3.41,16-2.43,7.15,1.28,13.87-.09,20.39-2.53A39.4,39.4,0,0,0,68,21.36a47.58,47.58,0,0,0,3-6.22C73.81,8.37,78.15,3.32,85.4,1A21.6,21.6,0,0,1,112,13.9c5.31,14.38,16,22.85,30.5,26.57a33.37,33.37,0,0,0,14.21.58c8.46-1.5,16.2.27,22,7.33s6.88,17.86,1,25.79c-4,5.4-7.41,11-9.2,17.6-3,11.06-1.47,21.5,4.07,31.39,1.49,2.65,3.39,5.06,5.1,7.57,9.78,14.35,0,29.79-11.2,32.81-15.2,4.08-27.68-7-27.69-20a22.51,22.51,0,0,1,5.06-14.46A40.29,40.29,0,0,0,155,103c-.28-24.41-11-42.78-31.83-55.31A56.19,56.19,0,0,0,99,39.77C96.59,39.55,94.15,39.18,92.84,39Z" fill="url(#linear-gradient)"/><path d="M42.89,143.5c.34,5-1.71,9.43-4.83,13.39a41.79,41.79,0,0,0-8.62,18.26,42.23,42.23,0,0,0,2,23.91,39.49,39.49,0,0,0,7,11.94c5.62,6.27,5.91,17.81,1.18,24.85a21.47,21.47,0,0,1-36.43-.6c-4.43-7.51-4.36-15.18.3-22.59,2.38-3.79,5.34-7.21,7.19-11.37,6.1-13.73,5.18-27-2.46-39.84a45,45,0,0,0-3.46-5A21.29,21.29,0,0,1,15.19,122.6,21.17,21.17,0,0,1,42.89,143.5Z" fill="url(#linear-gradient-2)"/><path d="M102.37,204.45c-2.54.08-5.1.36-7.79.64a21.65,21.65,0,0,1-15.22-4c-11.45-8.09-11.32-25-2.2-33.15,10.58-9.49,28.45-7.13,34.51,7.48,3.52,8.49,8.53,15.45,16,20.69a40.28,40.28,0,0,0,21.46,7.42,56.69,56.69,0,0,0,10.39-.61,21.46,21.46,0,0,1,7,42.32c-10.43,2.18-20-2.66-24.32-13.09a49.45,49.45,0,0,0-7.38-12.73,41.55,41.55,0,0,0-22.51-14A34.76,34.76,0,0,0,102.37,204.45Z" fill="url(#linear-gradient-3)"/><path d="M113,103.14c.66,10.23-9,21-21.55,20.84a21.64,21.64,0,0,1-20.91-22.09c.33-11,9.57-21.06,21.71-20.84C103.77,81.26,113.86,90.93,113,103.14Z" fill="url(#linear-gradient-4)"/></g></g></svg>