<svg xmlns="http://www.w3.org/2000/svg" xmlns:xlink="http://www.w3.org/1999/xlink" viewBox="0 0 701.98 190.3"><defs><linearGradient id="linear-gradient" x1="118.1" y1="38.42" x2="-41.23" y2="177.43" gradientUnits="userSpaceOnUse"><stop offset="0" stop-color="#00a28a"/><stop offset="1" stop-color="#3460c7"/></linearGradient><linearGradient id="linear-gradient-2" x1="125.69" y1="47.12" x2="-33.64" y2="186.13" xlink:href="#linear-gradient"/><linearGradient id="linear-gradient-3" x1="168.77" y1="96.49" x2="9.44" y2="235.5" xlink:href="#linear-gradient"/><linearGradient id="linear-gradient-4" x1="118.12" y1="38.44" x2="-41.21" y2="177.45" xlink:href="#linear-gradient"/></defs><title>Asset 2</title><g id="Layer_2" data-name="Layer 2"><g id="Layer_1-2" data-name="Layer 1"><path d="M71.9,30.21c-10.38.36-19.27,2.79-27.27,8-6,3.86-9.9,9.42-12.51,16a16.22,16.22,0,0,1-8.61,9A16.62,16.62,0,0,1,8.36,33.64a17.71,17.71,0,0,1,12.41-1.88c5.54,1,10.75-.07,15.79-2a30.51,30.51,0,0,0,16.1-13.26A38.82,38.82,0,0,0,55,11.73c2.16-5.25,5.52-9.16,11.14-11a16.73,16.73,0,0,1,20.57,10c4.11,11.13,12.4,17.69,23.62,20.57a25.7,25.7,0,0,0,11,.45c6.55-1.16,12.55.21,17,5.68a16.26,16.26,0,0,1,.75,20A40.79,40.79,0,0,0,132,71.07a31.19,31.19,0,0,0,3.15,24.31c1.15,2.05,2.62,3.92,3.95,5.87,7.58,11.11,0,23.07-8.68,25.4-11.76,3.16-21.43-5.42-21.44-15.49A17.45,17.45,0,0,1,112.9,100,31.24,31.24,0,0,0,120,79.74c-.22-18.9-8.52-33.13-24.65-42.83A43.6,43.6,0,0,0,76.69,30.8C74.8,30.63,72.92,30.34,71.9,30.21Z" fill="url(#linear-gradient)"/><path d="M33.22,111.13c.26,3.87-1.33,7.31-3.74,10.37a32.26,32.26,0,0,0-6.68,14.15,32.67,32.67,0,0,0,1.57,18.51,30.58,30.58,0,0,0,5.46,9.25c4.34,4.85,4.57,13.79.91,19.25a16.64,16.64,0,0,1-28.22-.47,15.84,15.84,0,0,1,.23-17.49c1.85-2.94,4.14-5.58,5.57-8.81,4.73-10.64,4-20.9-1.9-30.85a35.66,35.66,0,0,0-2.68-3.88,16.48,16.48,0,0,1,8-26.21A16.4,16.4,0,0,1,33.22,111.13Z" fill="url(#linear-gradient-2)"/><path d="M79.28,158.34c-2,.06-4,.27-6,.5a16.83,16.83,0,0,1-11.79-3.12c-8.87-6.27-8.76-19.34-1.7-25.68,8.19-7.35,22-5.52,26.72,5.79a35.31,35.31,0,0,0,12.38,16,31.13,31.13,0,0,0,16.62,5.75,43.57,43.57,0,0,0,8-.47,16.62,16.62,0,0,1,5.38,32.77c-8.07,1.7-15.46-2.05-18.83-10.13a38.29,38.29,0,0,0-5.71-9.86,32.15,32.15,0,0,0-17.43-10.83A27.06,27.06,0,0,0,79.28,158.34Z" fill="url(#linear-gradient-3)"/><path d="M87.51,79.87c.51,7.93-7,16.31-16.7,16.15a16.63,16.63,0,0,1,.62-33.25C80.37,62.93,88.18,70.42,87.51,79.87Z" fill="url(#linear-gradient-4)"/><text transform="translate(184.86 135.11)" font-size="116" fill="#28314e" font-family="Gugi-Regular, Gugi">referredx</text></g></g></svg>